<svg width="24" height="21" viewBox="0 0 24 21" fill="none" xmlns="http://www.w3.org/2000/svg">
<rect width="24" height="21" fill="#E5E5E5"/>
<g clip-path="url(#clip0)">
<rect width="1600" height="4531" transform="translate(-269 -3460)" fill="white"/>
<rect x="-38.5" y="-127.5" width="359" height="324" rx="9.5" stroke="black" stroke-opacity="0.1"/>
<g opacity="0.5">
<path d="M7.68135 9.08343C7.09024 8.91324 6.49913 8.82689 5.92413 8.82689C5.03621 8.82689 4.2953 9.0298 3.72081 9.27828C4.27466 7.25068 5.60516 3.7521 8.2556 3.35811C8.50106 3.3216 8.7022 3.14412 8.76917 2.90521L9.34845 0.833296C9.39729 0.658077 9.36834 0.470523 9.26839 0.318465C9.16845 0.166407 9.00783 0.0649517 8.82783 0.0402801C8.63222 0.0135945 8.43283 0 8.23521 0C5.05383 0 1.90317 3.32059 0.57367 8.07516C-0.206758 10.8646 -0.4356 15.0582 1.48677 17.6978C2.5625 19.1749 4.13192 19.9636 6.15146 20.0424C6.15977 20.0426 6.16783 20.0429 6.17614 20.0429C8.66797 20.0429 10.8776 18.3647 11.5498 15.9623C11.9513 14.526 11.7698 13.0198 11.0382 11.72C10.3144 10.4348 9.12238 9.49806 7.68135 9.08343Z" fill="black"/>
<path d="M23.2796 11.7203C22.5558 10.4348 21.3637 9.49806 19.9227 9.08343C19.3316 8.91324 18.7405 8.82689 18.1657 8.82689C17.2778 8.82689 16.5367 9.0298 15.9622 9.27828C16.516 7.25068 17.8465 3.7521 20.4972 3.35811C20.7427 3.3216 20.9436 3.14412 21.0108 2.90521L21.5901 0.833296C21.6389 0.658077 21.6099 0.470523 21.51 0.318465C21.4103 0.166407 21.2497 0.0649517 21.0694 0.0402801C20.8741 0.0135945 20.6747 0 20.4768 0C17.2954 0 14.1448 3.32059 12.815 8.07516C12.0348 10.8646 11.806 15.0582 13.7286 17.6983C14.8041 19.1751 16.3738 19.9641 18.3931 20.0426C18.4014 20.0429 18.4094 20.0432 18.418 20.0432C20.9096 20.0432 23.1194 18.365 23.7916 15.9625C24.1927 14.5263 24.0109 13.0198 23.2796 11.7203Z" fill="black"/>
</g>
</g>
<defs>
<clipPath id="clip0">
<rect width="1600" height="4531" fill="white" transform="translate(-269 -3460)"/>
</clipPath>
</defs>
</svg>
